<svg height="512pt" viewBox="-29 0 512 512" width="512pt" xmlns="http://www.w3.org/2000/svg"><path d="m19.015625 371.972656h82.304687v5.386719c0 11.421875 9.292969 20.714844 20.714844 20.714844h11.316406l-34.320312 94.296875c-3.46875 9.527344 3.601562 19.628906 13.742188 19.628906h32.320312c6.125 0 11.648438-3.867188 13.742188-9.625l37.964843-104.300781h12.707031c4.140626 0 7.5-3.359375 7.5-7.5 0-4.144531-3.359374-7.5-7.5-7.5-10.445312 0-77.0625 0-87.472656 0-3.152344 0-5.714844-2.5625-5.714844-5.714844v-5.386719h221.375v5.386719c0 3.152344-2.5625 5.714844-5.714843 5.714844-9.453125 0-78.316407 0-87.472657 0-4.144531 0-7.5 3.355469-7.5 7.5 0 4.140625 3.355469 7.5 7.5 7.5h12.707032l37.964844 104.300781c2.09375 5.757812 7.617187 9.625 13.742187 9.625h32.320313c10.140624 0 17.210937-10.101562 13.742187-19.628906l-34.320313-94.296875h11.316407c11.421875 0 20.714843-9.292969 20.714843-20.714844v-5.386719h82.304688c10.484375 0 19.015625-8.53125 19.015625-19.015625v-21.589843c0-9.503907-7.015625-17.378907-16.136719-18.773438v-109.105469c0-4.144531-3.359375-7.5-7.5-7.5-4.144531 0-7.5 3.355469-7.5 7.5v108.863281h-391.742187v-252.730468h391.742187v108.863281c0 4.144531 3.359375 7.5 7.503906 7.5 4.140626 0 7.5-3.355469 7.5-7.5v-109.105469c9.121094-1.394531 16.136719-9.269531 16.136719-18.773437v-21.589844c0-10.484375-8.53125-19.015625-19.019531-19.015625h-415.984375c-10.484375 0-19.015625 8.53125-19.015625 19.015625v21.589844c0 9.503906 7.015625 17.378906 16.136719 18.773437v253.214844c-9.121094 1.394531-16.136719 9.269531-16.136719 18.773438v21.589843c0 10.484375 8.53125 19.015625 19.015625 19.015625zm161.824219 26.101563-36.007813 98.925781h-31.519531l36.003906-98.925781zm159.867187 98.925781h-31.519531l-36.007812-98.925781h31.519531zm-325.707031-477.984375c0-2.175781 1.839844-4.015625 4.015625-4.015625h415.988281c2.175782 0 4.015625 1.839844 4.015625 4.015625v21.589844c0 2.175781-1.839843 4.015625-4.015625 4.015625-4.449218 0-411.300781 0-415.988281 0-2.175781 0-4.015625-1.839844-4.015625-4.015625zm0 312.351563c0-2.175782 1.839844-4.015626 4.015625-4.015626h415.988281c2.175782 0 4.015625 1.839844 4.015625 4.015626v21.589843c0 2.175781-1.839843 4.015625-4.015625 4.015625-10.40625 0-413.417968 0-415.988281 0-2.175781 0-4.015625-1.839844-4.015625-4.015625zm0 0"/><path d="m342.820312 122.539062 12.152344 9.1875c6.410156 4.839844 15.355469 1.269532 16.113282-6.414062l4.324218-43.953125c.75-7.601563-7.203125-13.632813-14.332031-10.832031l-41.109375 16.152344c-7.1875 2.824218-8.171875 12.410156-1.773438 17.25l12.652344 9.5625-69.023437 86.644531c-6.039063-3.722657-57.355469-35.34375-63.191407-38.941407-2.753906-1.695312-6.28125-1.4375-8.757812.640626l-107.917969 90.515624c-3.171875 2.664063-3.585937 7.394532-.925781 10.566407 1.722656 2.054687 4.398438 3.035156 7.0625 2.5625v15.6875h-10.84375c-4.140625 0-7.5 3.359375-7.5 7.5 0 4.144531 3.359375 7.503906 7.5 7.503906h272.53125c4.144531 0 7.5-3.359375 7.5-7.503906 0-4.140625-3.355469-7.5-7.5-7.5h-9.53125v-155.398438zm16.945313-35.378906-2.691406 27.351563-22.886719-17.300781zm-88.957031 125.777344 24.304687-30.511719v98.742188h-24.304687zm-68.132813-31.628906 22.996094 14.171875v85.6875h-22.996094zm-45.136719 27.230468v72.628907h-24.308593v-52.242188zm-54.441406 72.628907v-26.964844l15.132813-12.695313v39.660157zm69.441406 0v-85.210938l15.132813-12.695312v97.90625zm68.132813 0v-76.445313l15.132813 9.328125v67.117188zm84.578125-136.570313v136.570313h-15.136719v-117.574219c8.605469-10.796875 1.433594-1.796875 15.136719-18.996094zm0 0"/></svg>