<svg height="511pt" viewBox="-16 0 511 511.99996" width="511pt" xmlns="http://www.w3.org/2000/svg"><path d="m281.464844 511.992188c61.902344-2.148438 119.046875-31.667969 156.78125-80.992188 4.84375-6.332031 3.691406-15.640625-3.074219-20.4375l-145.859375-103.355469c-9.480469-6.71875-22.621094.070313-22.621094 11.691407v178.765624c0 7.773438 6.398438 14.617188 14.773438 14.328126zm.226562-142.777344 28.691406-28.691406 14.261719 10.105468-42.949219 42.949219v-24.363281zm0 45.582031 55.371094-55.371094 14.257812 10.105469-69.628906 69.628906zm96.308594-26.363281-96.308594 96.308594v-24.367188l82.046875-82.042969zm26.675781 18.90625-84.109375 84.109375c-9.546875 2.371093-19.328125 4.023437-29.269531 4.902343l99.117187-99.117187zm-51.65625 72.871094 64.070313-64.074219 8.84375 6.265625c-19.535156 25.359375-44.621094 45.03125-72.914063 57.808594zm-55.050781-148.484376-16.277344 16.273438v-27.804688zm0 0"/><path d="m462.652344 212.214844c.496094 4.113281 4.234375 7.046875 8.34375 6.546875 4.113281-.496094 7.042968-4.230469 6.546875-8.34375-14.480469-119.957031-116.648438-210.417969-237.644531-210.417969-132.316407 0-239.398438 107.070312-239.398438 239.398438 0 129.695312 103.035156 235.457031 232.167969 239.289062.144531.003906.289062.007812.433593.007812 3.730469 0 7.246094-1.425781 9.941407-4.042968 2.769531-2.6875 4.355469-6.441406 4.355469-10.296875v-88.695313c0-4.144531-3.359376-7.5-7.5-7.5-4.144532 0-7.5 3.355469-7.5 7.5v88.011719c-121.683594-3.984375-216.898438-102.359375-216.898438-224.273437 0-121.226563 96.617188-220.308594 216.898438-224.273438v325.53125c0 4.144531 3.355468 7.5 7.5 7.5 4.140624 0 7.5-3.355469 7.5-7.5v-86.75l171.726562 121.6875c6.457031 4.574219 15.648438 3.121094 20.203125-3.722656 24.757813-37.199219 38.539063-80.539063 39.855469-125.332032.121094-4.140624-3.140625-7.597656-7.277344-7.71875-4.164062-.132812-7.597656 3.136719-7.71875 7.277344-1.222656 41.746094-13.996094 82.136719-36.945312 116.859375l-179.84375-127.4375v-220.394531c110.117187 3.636719 201.980468 87.144531 215.253906 197.089844zm0 0"/></svg>